<?xml version="1.0" standalone="no"?>
<!DOCTYPE svg PUBLIC "-//W3C//DTD SVG 20010904//EN"
 "http://www.w3.org/TR/2001/REC-SVG-20010904/DTD/svg10.dtd">
<svg version="1.0" xmlns="http://www.w3.org/2000/svg"
 width="1000.000000pt" height="1000.000000pt" viewBox="0 0 1000.000000 1000.000000"
 preserveAspectRatio="xMidYMid meet">

<g transform="translate(0.000000,1000.000000) scale(0.100000,-0.100000)"
fill="#000000" stroke="none">
<path d="M4739 9989 c-1351 -70 -2632 -695 -3510 -1714 -833 -966 -1256 -2140
-1226 -3400 13 -542 93 -990 268 -1502 328 -960 934 -1785 1764 -2404 716
-533 1570 -861 2483 -954 241 -25 881 -17 1102 14 591 81 1073 225 1575 471
283 139 560 307 798 487 l97 74 0 521 0 521 -148 -144 c-629 -614 -1479 -1033
-2337 -1154 -284 -39 -698 -48 -996 -19 -947 90 -1780 464 -2496 1123 -669
614 -1136 1491 -1287 2411 -41 250 -51 386 -50 680 1 298 19 492 69 765 185
1002 723 1895 1530 2542 779 625 1822 964 2804 913 1082 -56 2039 -474 2789
-1219 l122 -121 0 524 0 523 -107 80 c-532 397 -1139 683 -1788 843 -490 121
-954 165 -1456 139z"/>
<path d="M4845 8453 c-895 -43 -1693 -391 -2310 -1008 -553 -553 -913 -1287
-989 -2012 l-5 -53 388 0 389 0 7 57 c11 88 69 315 115 448 87 251 264 569
437 785 168 210 420 439 635 578 354 228 777 378 1195 423 146 15 522 6 658
-16 549 -88 1009 -305 1418 -669 376 -335 672 -825 801 -1326 l25 -95 1 844 0
844 -187 186 c-189 187 -332 306 -518 431 -519 347 -1093 540 -1725 580 -158
9 -198 10 -335 3z"/>
<path d="M4825 6909 c-585 -60 -1102 -367 -1420 -844 -157 -235 -254 -480
-307 -775 -21 -117 -17 -489 6 -615 157 -858 821 -1489 1676 -1595 46 -5 146
-10 222 -10 514 0 989 195 1352 556 l76 76 0 454 0 454 -170 0 -169 0 -23 -52
c-136 -318 -385 -550 -706 -658 -464 -155 -982 6 -1277 398 -260 346 -306 801
-120 1189 59 125 113 202 209 301 203 210 434 323 720 352 252 26 547 -51 766
-200 151 -102 289 -267 377 -451 37 -76 54 -100 73 -106 14 -5 91 -7 173 -5
l147 3 0 452 0 452 -82 81 c-294 288 -642 464 -1048 529 -121 19 -359 26 -475
14z"/>
<path d="M1544 4553 c134 -1153 911 -2215 1981 -2705 435 -200 874 -302 1355
-315 691 -19 1358 161 1938 524 238 149 521 385 700 581 l92 102 -1 837 -1
838 -28 -106 c-129 -481 -372 -894 -731 -1244 -431 -420 -961 -672 -1569 -747
-134 -16 -516 -16 -640 0 -533 71 -1010 289 -1445 663 -271 232 -504 545 -658
883 -95 207 -161 423 -223 724 l-4 22 -386 0 -386 0 6 -57z"/>
</g>
</svg>
